Coordinates
version=1
nRows=10
nColumns=63
inDegrees=yes

Units are S.I. units (second, meters, Newtons, ...)
If the header above contains a line with 'inDegrees', this indicates whether rotational values are in degrees (yes) or radians (no).

endheader
time	pelvis_tilt	pelvis_list	pelvis_rotation	pelvis_tx	pelvis_ty	pelvis_tz	hip_flexion_r	hip_adduction_r	hip_rotation_r	knee_angle_r	knee_angle_r_beta	ankle_angle_r	subtalar_angle_r	mtp_angle_r	hip_flexion_l	hip_adduction_l	hip_rotation_l	knee_angle_l	knee_angle_l_beta	ankle_angle_l	subtalar_angle_l	mtp_angle_l	L5_S1_Flex_Ext	L5_S1_Lat_Bending	L5_S1_axial_rotation	L4_L5_Flex_Ext	L4_L5_Lat_Bending	L4_L5_axial_rotation	L3_L4_Flex_Ext	L3_L4_Lat_Bending	L3_L4_axial_rotation	L2_L3_Flex_Ext	L2_L3_Lat_Bending	L2_L3_axial_rotation	L1_L2_Flex_Ext	L1_L2_Lat_Bending	L1_L2_axial_rotation	L1_T12_Flex_Ext	L1_T12_Lat_Bending	L1_T12_axial_rotation	Abs_r3	Abs_r2	Abs_r1	Abs_t1	Abs_t2	neck_flexion	neck_bending	neck_rotation	arm_flex_r	arm_add_r	arm_rot_r	elbow_flex_r	pro_sup_r	wrist_flex_r	wrist_dev_r	arm_flex_l	arm_add_l	arm_rot_l	elbow_flex_l	pro_sup_l	wrist_flex_l	wrist_dev_l
1.928571	4.037848	1.887571	92.704850	0.193573	0.719279	0.835948	3.668412	1.617834	17.487166	1.243038	0.021695	30.051060	-11.652954	0.000000	7.443904	-2.304012	-4.865699	11.674737	0.203763	40.611542	8.775238	0.000000	0.070396	0.299554	-0.398060	0.130732	0.398406	-0.422938	0.115654	0.728334	-0.422938	0.080456	0.728334	-0.348302	0.065370	0.610850	-0.323424	0.040224	0.464008	-0.298545	0.502832	3.388609	-2.213889	0.000000	0.000000	28.043866	3.390667	1.230353	7.749648	-15.418060	38.854251	25.892359	87.407399	-10.867796	-2.231518	7.788366	-8.654920	137.686908	4.826142	0.252928	-8.482217	-8.479074
1.952381	3.966450	1.690435	92.611554	0.193075	0.720457	0.835488	3.651321	1.533598	18.987738	0.932879	0.016282	29.096046	-13.525665	0.000000	7.384308	-2.083631	-3.555104	11.249004	0.196332	39.753524	6.993914	0.000000	0.107878	0.312443	-0.363495	0.200341	0.415550	-0.386213	0.177233	0.759675	-0.386213	0.123294	0.759675	-0.318058	0.100176	0.637135	-0.295340	0.061642	0.483975	-0.272621	0.770563	3.534423	-2.021649	0.000000	0.000000	28.066711	2.700211	0.937183	9.371370	-15.365472	40.640041	26.610384	89.095903	-11.564459	-1.973757	9.078303	-8.100768	136.864878	5.415761	3.275518	-8.928267	-8.704724
1.976190	3.815773	1.424999	92.477121	0.192671	0.721551	0.835153	3.795759	1.351068	19.818803	0.829587	0.014479	28.378947	-14.493576	0.000000	7.377657	-1.776214	-2.141213	10.758768	0.187776	38.819136	5.017326	0.000000	0.147620	0.313754	-0.328515	0.274145	0.417293	-0.349047	0.242525	0.762861	-0.349047	0.168715	0.762861	-0.287451	0.137080	0.639807	-0.266918	0.084350	0.486005	-0.246386	1.054434	3.549246	-1.827102	0.000000	0.000000	28.094371	2.176375	0.710621	11.317089	-15.248366	43.174042	27.298847	90.028073	-12.467044	-2.094531	10.361417	-7.669010	134.197292	6.574645	7.279220	-9.162892	-8.660594
2.000000	3.572302	1.084094	92.243676	0.192474	0.722485	0.834970	4.156530	1.059774	19.922503	1.008108	0.017595	27.994808	-14.392775	0.000000	7.441126	-1.385726	-0.710397	10.231272	0.178569	37.831955	2.865696	0.000000	0.190389	0.300687	-0.267897	0.353572	0.399913	-0.284641	0.312791	0.731090	-0.284641	0.217596	0.731090	-0.234410	0.176796	0.613161	-0.217667	0.108788	0.465764	-0.200923	1.359932	3.401430	-1.489965	0.000000	0.000000	28.128234	1.755989	0.394662	13.392505	-15.106150	46.000180	28.031084	90.085822	-13.417549	-2.628848	11.645569	-7.334369	129.926228	8.194336	12.429798	-9.315954	-8.577340
2.023810	3.285799	0.697041	91.948159	0.192405	0.723274	0.834866	4.653182	0.709930	19.240661	1.365466	0.023832	27.915130	-13.175350	0.000000	7.540586	-0.963157	0.692290	9.661595	0.168627	36.824192	0.652903	0.000000	0.234219	0.279633	-0.185229	0.434967	0.371912	-0.196806	0.384798	0.679899	-0.196806	0.267688	0.679899	-0.162076	0.217495	0.570227	-0.150499	0.133832	0.433151	-0.138922	1.673000	3.163263	-1.030190	0.000000	0.000000	28.163567	1.348570	-0.080045	15.508892	-14.990663	49.010337	28.837381	89.332781	-14.385589	-3.492677	12.890331	-7.069566	124.225127	10.167532	18.589364	-9.390157	-8.523304
2.047619	2.969270	0.281216	91.624128	0.192446	0.723865	0.834913	5.258181	0.334752	18.051262	1.868667	0.032614	28.109847	-11.241436	0.000000	7.689650	-0.527806	2.031186	9.105592	0.158923	35.834447	-1.546175	0.000000	0.276226	0.252558	-0.090548	0.512980	0.335902	-0.096207	0.453812	0.614068	-0.096207	0.315699	0.614068	-0.079229	0.256504	0.515015	-0.073570	0.157836	0.391212	-0.067911	1.973056	2.856981	-0.503598	0.000000	0.000000	28.201803	0.964733	-0.668782	17.544846	-14.849452	51.308918	29.804723	88.999902	-15.363700	-4.372404	14.070154	-6.916063	117.170176	12.485280	25.587769	-9.478905	-8.547090
2.071429	2.635846	-0.144306	91.281158	0.192569	0.724255	0.835052	5.928074	-0.055055	16.375860	2.473265	0.043167	28.554468	-8.626536	0.000000	7.860356	-0.089720	3.295273	8.553727	0.149291	34.875148	-3.689305	0.000000	0.316502	0.221619	0.017513	0.587775	0.294754	0.018608	0.519980	0.538845	0.018608	0.361730	0.538845	0.015324	0.293903	0.451926	0.014230	0.180849	0.343288	0.013135	2.260739	2.507002	0.097404	0.000000	0.000000	28.240081	0.579099	-1.371823	19.410212	-14.684885	52.890770	30.923446	89.121387	-16.210210	-5.197286	15.151114	-6.863797	108.983886	15.092102	33.231970	-9.525279	-8.616651
2.095238	2.298649	-0.545482	90.926217	0.192752	0.724466	0.835302	6.633035	-0.452716	14.099389	3.191655	0.055705	29.268577	-5.208871	0.000000	8.021058	0.330537	4.408024	8.021220	0.139997	33.968105	-5.661520	0.000000	0.351780	0.188939	0.134539	0.653291	0.251289	0.142948	0.577940	0.459386	0.142948	0.402050	0.459386	0.117722	0.326663	0.385284	0.109313	0.201007	0.292666	0.100904	2.512732	2.137313	0.748267	0.000000	0.000000	28.276466	0.210500	-2.155671	21.131274	-14.526686	54.148790	32.098364	89.486758	-16.953899	-5.957995	16.120723	-6.923246	99.938297	17.943691	41.294797	-9.477391	-8.710141
2.119048	1.955955	-0.888088	90.640905	0.192875	0.724537	0.835519	7.207490	-0.850009	12.470692	3.771625	0.065827	29.800135	-2.731835	0.000000	8.132526	0.753109	5.503893	7.502788	0.130948	33.113263	-7.511504	0.000000	0.381232	0.154774	0.247115	0.707987	0.205849	0.262560	0.626327	0.376317	0.262560	0.435710	0.376317	0.216226	0.354012	0.315614	0.200781	0.217836	0.239744	0.185336	2.723105	1.750830	1.374381	0.000000	0.000000	28.306538	-0.141988	-2.975272	22.587586	-14.324092	54.779744	33.262545	90.320102	-17.356633	-6.539626	16.921666	-7.073389	90.206266	20.970877	49.582104	-9.161865	-8.750148
2.142857	1.615457	-1.182256	90.379369	0.193001	0.724446	0.835808	7.744183	-1.243869	10.777973	4.364535	0.076176	30.413692	-0.213244	0.000000	8.219127	1.148125	6.421498	7.037666	0.122830	32.348936	-9.072503	0.000000	0.406708	0.120323	0.357635	0.755298	0.160030	0.379988	0.668181	0.292553	0.379988	0.464827	0.292553	0.312931	0.377669	0.245363	0.290579	0.232393	0.186380	0.268226	2.905076	1.361117	1.989060	0.000000	0.000000	28.327363	-0.431816	-3.808056	23.832281	-14.104577	55.069120	34.348201	90.690445	-17.477435	-7.025431	17.559772	-7.329829	80.104674	24.099714	57.532662	-8.529943	-8.704400
